<?xml version="1.0" encoding="iso-8859-1"?>
<!-- Uploaded to: SVG Repo, www.svgrepo.com, Generator: SVG Repo Mixer Tools -->
<svg height="800px" width="800px" version="1.1" id="Layer_1" xmlns="http://www.w3.org/2000/svg" xmlns:xlink="http://www.w3.org/1999/xlink" 
	 viewBox="0 0 512 512" xml:space="preserve">
<path style="fill:#57D4D4;" d="M512,250.435v111.304c0,46.08-37.398,83.478-83.478,83.478h-16.696v50.087
	c0,6.79-4.118,12.8-10.35,15.471c-2.005,0.779-4.232,1.224-6.345,1.224c-4.341,0-8.57-1.67-11.799-4.897l-61.884-61.885h-59.882
	c-46.08,0-83.478-37.398-83.478-83.478V166.957h250.435C474.602,166.957,512,204.355,512,250.435z"/>
<path style="fill:#4DBFBF;" d="M512,250.435v111.304c0,46.08-37.398,83.478-83.478,83.478h-16.696v50.087
	c0,6.79-4.118,12.8-10.35,15.471c-2.005,0.779-4.232,1.224-6.345,1.224c-4.341,0-8.57-1.67-11.799-4.897l-38.288-38.289V166.957
	h83.478C474.602,166.957,512,204.355,512,250.435z"/>
<path style="fill:#FF80AC;" d="M116.87,411.826c-2.153,0-4.326-0.413-6.391-1.272c-6.24-2.581-10.305-8.668-10.305-15.423v-50.087
	H83.478C37.446,345.043,0,307.597,0,261.565V83.478C0,37.446,37.446,0,83.478,0h233.739c46.032,0,83.478,37.446,83.478,83.478
	v178.087c0,46.032-37.446,83.478-83.478,83.478H190.565l-61.891,61.891C125.478,410.131,121.206,411.826,116.87,411.826z"/>
<path style="fill:#F26D99;" d="M317.217,0h-116.87v345.043h116.87c46.032,0,83.478-37.446,83.478-83.478V83.478
	C400.696,37.446,363.25,0,317.217,0z"/>
<path style="fill:#FFEFD9;" d="M200.348,278.462c-3.87,0-7.739-1.342-10.87-4.021c-12.914-11.07-24.989-20.858-36.021-29.804
	c-44.043-35.706-75.869-61.506-75.869-103.309c0-41.288,30.631-73.63,69.728-73.63c25.445,0,42.326,13.059,53.032,26.755
	c10.706-13.696,27.587-26.755,53.032-26.755c39.098,0,69.728,32.343,69.728,73.63c0,41.805-31.826,67.603-75.869,103.309
	c-11.033,8.946-23.109,18.734-36.021,29.804C208.087,277.12,204.218,278.462,200.348,278.462z"/>
<path style="fill:#FFD9B3;" d="M211.218,274.44c12.914-11.07,24.989-20.858,36.021-29.804
	c44.043-35.706,75.869-61.506,75.869-103.309c0-41.288-30.631-73.63-69.728-73.63c-25.445,0-42.326,13.059-53.032,26.755v184.011
	C204.218,278.462,208.087,277.12,211.218,274.44z"/>
</svg>